<svg width="25" height="25" viewBox="0 0 25 25" fill="none" xmlns="http://www.w3.org/2000/svg">
<path d="M22.8811 16.6077C22.0365 15.7632 20.6623 15.7632 19.8178 16.6077L17.6025 18.823C17.2944 18.0027 16.5017 17.4177 15.5741 17.4177H13.2376C12.9053 17.4177 12.76 17.2342 12.4208 16.94C11.3719 16.0158 9.97008 15.5659 8.5786 15.7043C7.28749 15.8324 6.12446 16.4381 5.2695 17.4177H2.48999C2.09193 17.4177 1.77002 17.7396 1.77002 18.1377V23.9113C1.77002 24.3094 2.09193 24.6313 2.48999 24.6313C3.09574 24.6313 16.4117 24.6313 17.021 24.6313C17.599 24.6313 18.1424 24.4063 18.5509 23.9978L22.8811 19.6676C23.7257 18.8265 23.7257 17.4523 22.8811 16.6077ZM4.75375 23.1913H3.21342V18.8611H4.75375V23.1913ZM21.8635 18.65L17.5332 22.9802C17.3982 23.1117 17.2113 23.1913 17.021 23.1913C16.7856 23.1913 6.42907 23.1913 6.19715 23.1913V18.5634C6.82366 17.7465 7.72017 17.2412 8.72397 17.1408C9.7174 17.0404 10.7177 17.3623 11.4689 18.0234C11.8358 18.3454 12.3169 18.8611 13.2376 18.8611H15.581C15.9791 18.8611 16.3044 19.1865 16.3044 19.5811C16.3044 19.9791 15.9791 20.3011 15.581 20.3011H12.6319C11.9396 20.3011 11.2819 20.6368 10.877 21.1976C10.6451 21.5195 10.7143 21.9729 11.0397 22.2048C11.3616 22.4367 11.815 22.3675 12.0469 22.0421C12.1819 21.8552 12.4 21.7445 12.6319 21.7445C13.4038 21.7445 15.6399 21.7445 16.4256 21.7445C16.616 21.7445 16.7994 21.6683 16.9344 21.5333L20.8423 17.6254C21.1227 17.345 21.5831 17.345 21.8635 17.6254C22.1438 17.9092 22.1438 18.3661 21.8635 18.65Z" fill="#0FA251"/>
<path d="M24.2375 13.0876H23.4933C23.1645 8.05814 19.4262 3.95292 14.6598 3.0668C14.7879 2.79335 14.8571 2.48529 14.8571 2.16338C14.8571 0.969192 13.8845 0 12.6938 0C11.4996 0 10.5269 0.972654 10.5269 2.16338C10.5269 2.48529 10.5996 2.78989 10.7242 3.0668C5.95787 3.946 2.12956 8.03737 1.79381 13.0876H1.0496C0.648082 13.0876 0.326172 13.4095 0.326172 13.8075C0.326172 14.2056 0.648082 14.5275 1.0496 14.5275H24.241C24.639 14.5275 24.961 14.2056 24.961 13.8075C24.961 13.4095 24.6356 13.0876 24.2375 13.0876ZM12.6903 1.4434C13.0884 1.4434 13.4103 1.76878 13.4103 2.16338C13.4103 2.56144 13.0849 2.88681 12.6903 2.88681C12.2922 2.88681 11.9703 2.56144 11.9703 2.16338C11.9703 1.76878 12.2922 1.4434 12.6903 1.4434ZM3.24067 13.0876C3.62489 8.27275 7.79587 4.31983 12.6903 4.31983C17.6228 4.31983 21.6796 8.1966 22.0465 13.0876H3.24067Z" fill="#0FA251"/>
</svg>
