<svg width="53" height="42" viewBox="0 0 53 42" fill="none" xmlns="http://www.w3.org/2000/svg">
<path d="M40.5776 0.299805C44.1095 0.299978 46.9839 3.17406 46.9839 6.70605C46.9839 7.03391 46.957 7.36066 46.9067 7.68359L46.853 8.03027H47.3062C47.9979 8.03036 48.5591 8.59141 48.5591 9.2832C48.5589 9.97487 47.9978 10.536 47.3062 10.5361H45.4526V14.2412H47.3062C47.8984 14.2413 48.4096 14.6559 48.5317 15.2354L52.6733 34.8682C52.7607 35.2825 52.6321 35.7131 52.3325 36.0127L47.1567 41.1885C46.9217 41.4234 46.6032 41.5556 46.271 41.5557H34.8843C34.552 41.5557 34.2333 41.4232 33.9985 41.1885H33.9976L28.8218 36.0127C28.5224 35.7132 28.3946 35.2825 28.4819 34.8682L32.6226 15.2354C32.7447 14.656 33.2569 14.2412 33.8491 14.2412H35.7017V10.5361H33.8491C33.1574 10.5361 32.5963 9.97492 32.5962 9.2832C32.5962 8.59136 33.1573 8.03027 33.8491 8.03027H34.3013L34.2476 7.68457C34.1974 7.36139 34.1714 7.03398 34.1714 6.70605C34.1714 3.17405 37.0455 0.299805 40.5776 0.299805ZM31.3286 33.5117L31.1069 34.5615L31.0737 34.7207L31.188 34.8359L35.3149 38.9619L35.4028 39.0498H45.7515L45.8394 38.9619L49.9663 34.8359L50.0815 34.7207L50.0483 34.5615L49.8267 33.5117L49.7759 33.2734H31.3784L31.3286 33.5117ZM33.0679 25.2656L31.9839 30.4062L31.9077 30.7686H49.2476L49.1714 30.4062L48.0874 25.2656L48.0366 25.0283H33.1177L33.0679 25.2656ZM34.8149 16.9844L33.7231 22.1602L33.646 22.5225H47.5083L47.4321 22.1602L46.3403 16.9844L46.2896 16.7461H34.8647L34.8149 16.9844ZM38.2075 14.2412H42.9478V10.5352H38.2075V14.2412ZM40.5776 2.80566C38.4266 2.80566 36.6764 4.55504 36.6763 6.70605C36.6763 7.08442 36.7344 7.45847 36.8413 7.81641L36.9048 8.03027H44.2495L44.314 7.81543C44.4206 7.45767 44.478 7.08422 44.478 6.70605C44.478 4.55514 42.7286 2.80584 40.5776 2.80566Z" fill="#0FA251" stroke="white" stroke-width="0.6"/>
<path d="M12.4229 0.299805C15.9547 0.29998 18.8291 3.17406 18.8291 6.70605C18.8291 7.03398 18.8021 7.36133 18.752 7.68457L18.6982 8.03027H19.1514C19.8431 8.03037 20.4043 8.59142 20.4043 9.2832C20.4042 9.97487 19.843 10.536 19.1514 10.5361H17.2979V14.2412H19.1514C19.7435 14.2413 20.2548 14.6559 20.377 15.2354L24.5186 34.8682C24.6058 35.2825 24.478 35.7133 24.1787 36.0127L19.002 41.1885C18.7669 41.4234 18.4484 41.5556 18.1162 41.5557H6.72949C6.39718 41.5557 6.07796 41.4235 5.84277 41.1885L0.666992 36.0127C0.367544 35.7132 0.239771 35.2825 0.327148 34.8682L4.46777 15.2354C4.58995 14.656 5.10211 14.2412 5.69434 14.2412H7.54688V10.5361H5.69434C5.00258 10.5361 4.44155 9.97492 4.44141 9.2832C4.44141 8.59136 5.00249 8.03027 5.69434 8.03027H6.14648L6.09277 7.68457C6.04274 7.36121 6.0166 7.03392 6.0166 6.70605C6.01663 3.17405 8.89064 0.299805 12.4229 0.299805ZM3.17383 33.5117L2.95215 34.5615L2.91895 34.7207L3.0332 34.8359L7.16016 38.9619L7.24805 39.0498H17.5967L17.6846 38.9619L21.8115 34.8359L21.9268 34.7207L21.8936 34.5615L21.6719 33.5117L21.6211 33.2734H3.22363L3.17383 33.5117ZM4.91309 25.2656L3.8291 30.4062L3.75195 30.7686H21.0928L21.0166 30.4062L19.9326 25.2656L19.8818 25.0283H4.96289L4.91309 25.2656ZM6.66016 16.9844L5.56836 22.1602L5.49121 22.5225H19.3535L19.2773 22.1602L18.1855 16.9844L18.1348 16.7461H6.70996L6.66016 16.9844ZM10.0527 14.2412H14.793V10.5352H10.0527V14.2412ZM12.4229 2.80566C10.2717 2.80566 8.52148 4.55503 8.52148 6.70605C8.52149 7.08432 8.5798 7.45763 8.68652 7.81543L8.75 8.03027H16.0947L16.1592 7.81543C16.2659 7.4576 16.3232 7.08417 16.3232 6.70605C16.3232 4.55514 14.5738 2.80584 12.4229 2.80566Z" fill="#0FA251" stroke="white" stroke-width="0.6"/>
</svg>
