<svg width="63" height="41" viewBox="0 0 63 41" fill="none" xmlns="http://www.w3.org/2000/svg">
<path d="M50.9541 0.889648C51.4733 0.370489 52.3149 0.37056 52.834 0.889648C53.3207 1.37644 53.3517 2.14677 52.9258 2.66895L52.834 2.76953L51.04 4.56348L51.2031 4.88672C51.5728 5.61978 51.7705 6.43437 51.7705 7.28125C51.7705 8.70506 51.2166 10.041 50.21 11.0479C49.5454 11.7124 49.0443 12.5744 48.6084 13.4902L48.4111 13.9033L48.8047 14.1357C52.8324 16.5143 54.3388 21.0171 54.3389 24.4775C54.3389 25.1962 54.2507 25.8944 54.0791 26.5703L53.9209 27.1934H60.6182C61.3524 27.1934 61.9473 27.7891 61.9473 28.5234V30.9619C61.9473 35.7298 58.0676 39.6104 53.2998 39.6104H9.14746C4.37968 39.6103 0.5 35.7297 0.5 30.9619V28.5234C0.5 27.7893 1.09505 27.1936 1.8291 27.1934H6.06738L5.81934 26.5205C4.54023 23.0507 5.26111 19.0589 7.89258 16.2275L8.15332 15.957C8.54488 15.5656 9.12101 15.469 9.60449 15.6699L10.0361 15.8496L10.2441 15.4307C11.5156 12.8727 13.2957 10.6831 15.4805 9.00977C18.8248 6.44853 22.9798 5.1377 27.8555 5.1377C30.8778 5.13772 33.3305 5.76841 35.3447 7.02734L35.585 7.17773L35.8379 7.04883C36.6379 6.63982 37.4755 6.29331 38.3203 5.94434C39.9297 5.2797 41.5845 4.60493 42.6758 3.51367C43.6827 2.50697 45.0187 1.95318 46.4424 1.95312C47.2892 1.95312 48.104 2.15089 48.8369 2.52051L49.1602 2.68359L50.9541 0.889648ZM3.15918 30.9619C3.15918 34.2644 5.84499 36.9511 9.14746 36.9512H53.2998C56.6025 36.9512 59.2881 34.2644 59.2881 30.9619V29.8525H3.15918V30.9619ZM8.83203 19.4092C7.50346 21.7373 7.53291 24.6403 8.98242 26.959L9.12891 27.1934H17.5098L9.15723 18.8408L8.83203 19.4092ZM20.1865 19.4092C18.8581 21.7372 18.8874 24.6403 20.3369 26.959L20.4834 27.1934H28.8643L28.0107 26.3398L20.9736 19.3037L20.5107 18.8408L20.1865 19.4092ZM27.8555 7.79688C22.8588 7.79688 19.3104 9.33983 16.8174 11.3584C14.3326 13.3703 12.9227 15.832 12.1572 17.6396L12.0264 17.9492L15.8369 21.7598L16.5293 22.4531L16.6836 21.4854C17.0062 19.4573 17.9514 17.5134 19.5078 15.957C20.027 15.4378 20.8686 15.4379 21.3877 15.957L32.4785 27.0469L32.625 27.1934H51.0186L51.1523 26.9033C51.5056 26.1375 51.6797 25.3341 51.6797 24.4775C51.6796 21.9458 50.6718 18.6153 47.8799 16.7002L47.3848 16.3604L47.1406 16.9082C46.6161 18.0808 46.0237 19.1865 45.2021 20.1201C43.777 21.7398 41.9435 22.5342 39.5371 22.5342C37.3065 22.5341 35.2121 21.6661 33.6348 20.0889H33.6338C32.0566 18.5111 31.1893 16.4167 31.1895 14.1865C31.1895 12.2229 31.7189 10.6487 32.7773 9.36914L33.2148 8.84082L32.5771 8.58594C31.4364 8.13027 29.9206 7.79688 27.8555 7.79688ZM46.4424 4.6123C45.7308 4.61239 45.0589 4.89126 44.5557 5.39453C43.1153 6.83451 41.2485 7.61206 39.335 8.40234C37.6536 9.09672 36.2736 9.69654 35.3291 10.5381C34.3378 11.4215 33.8486 12.5455 33.8486 14.1865C33.8485 15.7051 34.4409 17.135 35.5146 18.209C36.5884 19.2826 38.0186 19.8749 39.5371 19.875C41.1782 19.875 42.3021 19.3858 43.1855 18.3945C44.0271 17.4501 44.6269 16.07 45.3213 14.3887C46.1115 12.4752 46.8891 10.6081 48.3291 9.16797C48.8323 8.66463 49.1113 7.99311 49.1113 7.28125C49.1113 6.56937 48.8323 5.89771 48.3291 5.39453C47.8258 4.89116 47.1541 4.6123 46.4424 4.6123Z" fill="#0FA251" stroke="white"/>
</svg>
