<svg width="203" height="37" viewBox="0 0 203 37" fill="none" xmlns="http://www.w3.org/2000/svg">
<path d="M14.4199 7.91134V6.3786H24.1381V7.91134L21.4313 8.20484C21.4096 9.55278 21.3879 10.9225 21.3661 12.3139C21.3661 13.6836 21.3661 15.075 21.3661 16.4882V17.8904C21.3661 19.2601 21.3661 20.6407 21.3661 22.0321C21.3879 23.4018 21.4096 24.7823 21.4313 26.1738L24.1381 26.4673V28H14.4199V26.4673L17.0614 26.1738C17.1049 24.8041 17.1266 23.4127 17.1266 21.9995C17.1266 20.5863 17.1266 19.1732 17.1266 17.76H8.28892C8.28892 19.3254 8.28892 20.7929 8.28892 22.1625C8.31066 23.5322 8.33241 24.8693 8.35415 26.1738L11.0283 26.4673V28H1.31007V26.4673L4.01682 26.1738C4.0603 24.8258 4.08204 23.4561 4.08204 22.0647C4.08204 20.6733 4.08204 19.2819 4.08204 17.8904V16.4882C4.08204 15.1185 4.08204 13.7488 4.08204 12.3791C4.08204 10.9877 4.0603 9.59626 4.01682 8.20484L1.31007 7.91134V6.3786H11.0283V7.91134L8.35415 8.20484C8.33241 9.55278 8.31066 10.9007 8.28892 12.2487C8.28892 13.5966 8.28892 14.8685 8.28892 16.0642H17.1266C17.1266 14.7163 17.1266 13.3901 17.1266 12.0856C17.1266 10.7811 17.1049 9.48756 17.0614 8.20484L14.4199 7.91134ZM37.4754 28.2935L37.2145 25.4237C35.6274 27.4456 33.7795 28.4566 31.6706 28.4566C30.3226 28.4566 29.2356 28.0217 28.4094 27.1521C27.605 26.2607 27.2137 24.7389 27.2354 22.5865L27.3659 14.5315L25.2461 14.0749V12.8031L30.9531 12.1182L31.3445 12.4769L31.1814 17.0425V22.4561C31.1814 23.6735 31.3662 24.5323 31.7358 25.0324C32.1271 25.5107 32.6815 25.7498 33.399 25.7498C34.0077 25.7498 34.6274 25.5759 35.2578 25.228C35.9101 24.8802 36.5297 24.4345 37.1167 23.891L37.2145 14.5315L35.16 14.0749V12.8683L40.7366 12.1182L41.1605 12.4769L41.0627 17.0425V26.239L43.052 26.6629V28L37.4754 28.2935ZM45.0324 28V26.6629L47.1521 26.239C47.1738 25.4346 47.1847 24.5649 47.1847 23.6301C47.1847 22.6735 47.1847 21.8473 47.1847 21.1516V19.4232C47.1847 18.5318 47.1738 17.8252 47.1521 17.3034C47.1521 16.7599 47.1304 16.162 47.0869 15.5098L44.8041 15.2163V13.9771L50.2502 11.9225L50.772 12.2487L51.0003 14.7597C52.6743 12.8683 54.5223 11.9225 56.5442 11.9225C57.9574 11.9225 59.0444 12.39 59.8054 13.3248C60.588 14.2597 60.9794 15.7381 60.9794 17.76V21.1516C60.9794 21.8908 60.9794 22.7278 60.9794 23.6627C60.9794 24.5975 60.9902 25.4672 61.012 26.2716L63.0013 26.6629V28H54.9462V26.6629L57.0334 26.239C57.0551 25.4346 57.066 24.5758 57.066 23.6627C57.066 22.7278 57.066 21.8908 57.066 21.1516V18.0535C57.066 16.7708 56.8921 15.8903 56.5442 15.412C56.1963 14.9119 55.6093 14.6619 54.7832 14.6619C53.6309 14.6619 52.4134 15.1946 51.1307 16.2599V21.1516C51.1307 21.869 51.1307 22.6952 51.1307 23.6301C51.1307 24.5649 51.1416 25.4454 51.1633 26.2716L53.0874 26.6629V28H45.0324ZM71.7192 21.0864C72.6324 21.0864 73.3281 20.7276 73.8064 20.0102C74.2847 19.2927 74.5238 18.3361 74.5238 17.1404C74.5238 15.9881 74.2847 15.075 73.8064 14.401C73.3498 13.7053 72.6867 13.3575 71.8171 13.3575C70.9474 13.3575 70.2626 13.7162 69.7625 14.4336C69.2842 15.1293 69.0451 16.0642 69.0451 17.2382C69.0451 18.4122 69.2734 19.3471 69.7299 20.0428C70.1865 20.7385 70.8496 21.0864 71.7192 21.0864ZM67.6102 31.0329C67.6102 32.033 67.9798 32.7613 68.719 33.2178C69.4582 33.6744 70.5126 33.9027 71.8823 33.9027C73.5998 33.9027 74.8934 33.62 75.7631 33.0548C76.6544 32.4895 77.1001 31.8047 77.1001 31.0003C77.1001 30.3915 76.8827 29.8697 76.4479 29.4349C76.0348 29.0001 75.3065 28.7827 74.2629 28.7827H70.6431C69.8386 28.7827 69.1212 28.7175 68.4907 28.587C67.9037 29.3697 67.6102 30.185 67.6102 31.0329ZM71.7845 22.5213C70.8061 22.5213 69.9039 22.4017 69.0777 22.1625C68.6646 22.7278 68.4581 23.3257 68.4581 23.9562C68.4581 24.3693 68.5885 24.6954 68.8494 24.9345C69.1321 25.1737 69.6321 25.2932 70.3496 25.2932H74.426C76.5566 25.2932 78.0785 25.6955 78.9916 26.4999C79.9047 27.3043 80.3613 28.3913 80.3613 29.761C80.3613 30.7828 80.0243 31.7394 79.3503 32.6308C78.6981 33.5222 77.7197 34.2397 76.4153 34.7832C75.1326 35.3267 73.5237 35.5985 71.5888 35.5985C69.9147 35.5985 68.5668 35.4245 67.545 35.0767C66.5449 34.7288 65.8166 34.2614 65.36 33.6744C64.9252 33.0874 64.7078 32.4352 64.7078 31.7177C64.7078 31.022 64.9361 30.3806 65.3926 29.7936C65.8492 29.2284 66.5992 28.6957 67.6428 28.1957C66.9688 27.9565 66.4688 27.6195 66.1427 27.1847C65.8166 26.7282 65.6535 26.2064 65.6535 25.6194C65.6535 24.9889 65.8383 24.3693 66.2079 23.7605C66.5992 23.13 67.1971 22.4452 68.0015 21.706C66.284 20.8363 65.4252 19.3471 65.4252 17.2382C65.4252 15.6294 65.9905 14.3467 67.121 13.3901C68.2516 12.4117 69.806 11.9225 71.7845 11.9225C73.7629 11.9225 75.3065 12.3791 76.4153 13.2922L80.1004 11.8899L80.5896 12.2161V14.4989H77.4262C77.8828 15.238 78.1111 16.1512 78.1111 17.2382C78.1111 18.8253 77.5567 20.108 76.4479 21.0864C75.3391 22.043 73.7846 22.5213 71.7845 22.5213ZM89.6099 13.4879C89.0882 13.4879 88.5664 13.6618 88.0446 14.0097C87.5445 14.3358 87.1097 14.8793 86.7401 15.6403C86.3923 16.4012 86.1749 17.4339 86.0879 18.7383H90.5557C91.3383 18.7383 91.8601 18.5753 92.121 18.2492C92.3819 17.9231 92.5124 17.4665 92.5124 16.8795C92.5124 15.8794 92.2297 15.0641 91.6645 14.4336C91.0992 13.8031 90.4144 13.4879 89.6099 13.4879ZM89.6099 28.4566C88.0881 28.4566 86.751 28.1304 85.5987 27.4782C84.4465 26.826 83.5442 25.8911 82.892 24.6736C82.2397 23.4344 81.9136 21.9669 81.9136 20.2711C81.9136 18.5318 82.2832 17.0425 83.0224 15.8033C83.7834 14.5423 84.7617 13.5857 85.9575 12.9335C87.1749 12.2595 88.4685 11.9225 89.8382 11.9225C91.1209 11.9225 92.2406 12.1943 93.1972 12.7378C94.1538 13.2814 94.893 14.0423 95.4148 15.0206C95.9583 15.999 96.2301 17.1513 96.2301 18.4775C96.2301 19.1732 96.1648 19.771 96.0344 20.2711H86.0553C86.1423 22.1408 86.6314 23.5431 87.5228 24.478C88.4359 25.4128 89.5773 25.8803 90.947 25.8803C91.9036 25.8803 92.708 25.6955 93.3603 25.3259C94.0342 24.9345 94.643 24.4345 95.1865 23.8257L96.1322 24.6736C95.5017 25.8694 94.6321 26.8042 93.5233 27.4782C92.4363 28.1304 91.1318 28.4566 89.6099 28.4566ZM98.6318 28V26.6629L100.719 26.2716C100.741 25.4454 100.752 24.5649 100.752 23.6301C100.752 22.6735 100.752 21.8473 100.752 21.1516V19.4232C100.752 18.5318 100.741 17.8252 100.719 17.3034C100.719 16.7599 100.697 16.162 100.654 15.5098L98.371 15.2163V13.9771L103.817 11.9225L104.339 12.2487L104.665 16.0968C105.165 14.7489 105.839 13.7162 106.687 12.9987C107.535 12.2813 108.383 11.9225 109.231 11.9225C109.818 11.9225 110.35 12.0747 110.829 12.3791C111.329 12.6835 111.655 13.1183 111.807 13.6836C111.785 14.488 111.589 15.1185 111.22 15.575C110.85 16.0099 110.339 16.2273 109.687 16.2273C108.904 16.2273 108.165 15.8359 107.47 15.0532L107.176 14.7271C106.024 15.6837 105.198 17.0317 104.698 18.771V21.1516C104.698 21.8256 104.698 22.63 104.698 23.5648C104.698 24.478 104.708 25.3367 104.73 26.1411L107.404 26.6629V28H98.6318Z" fill="#1E1D1E"/>
<path d="M163.801 7.91134L164.094 6.3786H173.486L173.16 7.91134L170.486 8.20484L168.66 17.8904C168.399 19.2601 168.149 20.6407 167.91 22.0321C167.671 23.4018 167.432 24.7715 167.192 26.1411L169.964 26.4673L169.671 28H160.279L160.605 26.4673L163.279 26.1738L164.877 17.76H155.941L155.909 17.8904C155.648 19.2601 155.398 20.6407 155.159 22.0321C154.92 23.4018 154.68 24.7715 154.441 26.1411L157.213 26.4673L156.92 28H147.528L147.854 26.4673L150.528 26.1738L152.354 16.4882C152.615 15.1185 152.865 13.7488 153.104 12.3791C153.365 10.9877 153.604 9.60713 153.822 8.23745L151.05 7.91134L151.343 6.3786H160.735L160.409 7.91134L157.735 8.20484L156.268 16.0642H165.17C165.41 14.7597 165.649 13.4553 165.888 12.1508C166.127 10.8464 166.355 9.54191 166.573 8.23745L163.801 7.91134ZM184.625 28.4566C184.038 28.4566 183.538 28.2609 183.125 27.8696C182.712 27.4565 182.505 26.8803 182.505 26.1411C182.505 25.815 182.538 25.4237 182.603 24.9671C181.451 26.0759 180.342 26.9347 179.277 27.5434C178.233 28.1522 177.222 28.4566 176.244 28.4566C175.57 28.4566 174.983 28.25 174.483 27.8369C173.983 27.4239 173.733 26.7716 173.733 25.8803C173.733 25.3585 173.798 24.7823 173.929 24.1518C174.059 23.4996 174.179 22.8691 174.287 22.2604L175.918 15.0532L173.113 14.7597L173.276 13.651L179.538 11.8899L180.027 12.3139L177.907 21.6408C177.777 22.1843 177.668 22.6843 177.581 23.1409C177.516 23.5757 177.483 23.967 177.483 24.3149C177.483 25.2063 177.875 25.652 178.657 25.652C179.223 25.652 179.831 25.478 180.484 25.1302C181.158 24.7606 181.962 24.1845 182.897 23.4018L183.94 18.4775C184.114 17.5643 184.288 16.6512 184.462 15.7381C184.658 14.8032 184.832 13.8684 184.984 12.9335L188.212 11.8899L188.767 12.3139L186.354 23.5322C186.18 24.2714 186.093 24.8149 186.093 25.1628C186.093 25.3802 186.158 25.5541 186.288 25.6846C186.419 25.7933 186.571 25.8476 186.745 25.8476C187.115 25.8476 187.517 25.6737 187.952 25.3259C188.386 24.9563 188.908 24.4019 189.517 23.6627L190.397 24.3149C189.941 24.9889 189.419 25.652 188.832 26.3042C188.267 26.9347 187.636 27.4565 186.941 27.8696C186.245 28.2609 185.473 28.4566 184.625 28.4566ZM192.91 23.6953L194.997 14.1075H192.094L192.355 12.6726L195.551 12.3465L197.377 7.94395H199.725L198.78 12.3791H202.53L202.236 14.3032L198.421 14.1727L196.464 23.4996C196.29 24.2606 196.203 24.8041 196.203 25.1302C196.203 25.3693 196.269 25.5541 196.399 25.6846C196.551 25.7933 196.714 25.8476 196.888 25.8476C197.562 25.8476 198.497 25.1193 199.693 23.6627L200.573 24.3149C200.138 24.9889 199.617 25.652 199.008 26.3042C198.421 26.9347 197.758 27.4565 197.019 27.8696C196.301 28.2609 195.529 28.4566 194.703 28.4566C194.094 28.4566 193.584 28.2935 193.17 27.9674C192.757 27.6413 192.551 27.1521 192.551 26.4999C192.551 26.152 192.583 25.7498 192.649 25.2932C192.714 24.8367 192.801 24.304 192.91 23.6953Z" fill="#0FA251"/>
<path d="M142.202 19.7525C141.197 18.748 139.563 18.748 138.558 19.7525L135.924 22.3873C135.557 21.4116 134.614 20.7159 133.511 20.7159H130.732C130.337 20.7159 130.164 20.4977 129.761 20.1477C128.513 19.0485 126.846 18.5134 125.191 18.678C123.655 18.8303 122.272 19.5508 121.255 20.7159H117.95C117.476 20.7159 117.093 21.0987 117.093 21.5721V28.439C117.093 28.9124 117.476 29.2953 117.95 29.2953C118.67 29.2953 134.507 29.2953 135.232 29.2953C135.919 29.2953 136.566 29.0277 137.052 28.5419L142.202 23.3918C143.206 22.3914 143.206 20.757 142.202 19.7525ZM120.642 27.5827H118.81V22.4326H120.642V27.5827ZM140.991 22.1814L135.841 27.3316C135.681 27.488 135.458 27.5827 135.232 27.5827C134.952 27.5827 122.634 27.5827 122.359 27.5827V22.0785C123.104 21.1069 124.17 20.5059 125.364 20.3865C126.545 20.2671 127.735 20.65 128.629 21.4363C129.065 21.8192 129.637 22.4326 130.732 22.4326H133.519C133.993 22.4326 134.38 22.8195 134.38 23.2889C134.38 23.7623 133.993 24.1452 133.519 24.1452H130.012C129.188 24.1452 128.406 24.5445 127.925 25.2114C127.649 25.5943 127.731 26.1336 128.118 26.4094C128.501 26.6852 129.04 26.6029 129.316 26.2159C129.477 25.9936 129.736 25.8619 130.012 25.8619C130.93 25.8619 133.589 25.8619 134.524 25.8619C134.75 25.8619 134.968 25.7713 135.129 25.6107L139.777 20.9629C140.11 20.6294 140.658 20.6294 140.991 20.9629C141.325 21.3004 141.325 21.8439 140.991 22.1814Z" fill="#0FA251"/>
<path d="M143.815 15.5657H142.93C142.539 9.58394 138.093 4.7014 132.424 3.6475C132.576 3.32227 132.658 2.95587 132.658 2.57301C132.658 1.15271 131.502 0 130.085 0C128.665 0 127.508 1.15682 127.508 2.57301C127.508 2.95587 127.595 3.31815 127.743 3.6475C122.074 4.69317 117.521 9.55924 117.122 15.5657H116.236C115.759 15.5657 115.376 15.9485 115.376 16.422C115.376 16.8954 115.759 17.2783 116.236 17.2783H143.819C144.292 17.2783 144.675 16.8954 144.675 16.422C144.675 15.9485 144.288 15.5657 143.815 15.5657ZM130.081 1.71671C130.555 1.71671 130.938 2.10369 130.938 2.57301C130.938 3.04644 130.551 3.43342 130.081 3.43342C129.608 3.43342 129.225 3.04644 129.225 2.57301C129.225 2.10369 129.608 1.71671 130.081 1.71671ZM118.842 15.5657C119.299 9.83919 124.26 5.13778 130.081 5.13778C135.948 5.13778 140.773 9.74862 141.209 15.5657H118.842Z" fill="#0FA251"/>
</svg>
