<svg width="52" height="46" viewBox="0 0 52 46" fill="none" xmlns="http://www.w3.org/2000/svg">
<path d="M51.8087 39.0433C51.5703 39.595 51.3934 40.1833 51.08 40.687C50.6013 41.4541 49.8727 41.9463 48.9941 42.1905C48.7346 42.2635 48.5827 42.3673 48.4962 42.6576C47.9617 44.4456 46.516 45.5011 44.6011 45.5068C41.2117 45.5164 37.8223 45.5088 34.4328 45.5088C25.4623 45.5088 16.4918 45.5088 7.51932 45.5088C5.24881 45.5088 4.03569 44.6513 3.24745 42.525C3.19747 42.3904 3.01482 42.2635 2.86679 42.2155C1.29031 41.7079 0.357886 40.6486 0.0502808 39.0241C-0.0977542 38.2454 0.0771962 37.6071 1.13651 37.7033C1.28262 37.7167 1.43258 37.6917 1.5537 37.684C1.64406 31.0552 5.5891 27.9695 11.5547 26.6468C11.4201 25.7048 11.0645 24.8319 10.4723 24.0552C10.2993 23.8284 10.0994 23.6207 9.92056 23.3958C9.46492 22.8286 9.31881 22.1827 9.56297 21.4983C9.66871 21.2041 9.5995 21.0445 9.40724 20.8446C7.89229 19.2604 6.38118 17.6724 4.88353 16.0709C4.56823 15.7345 4.2587 15.6326 3.80883 15.7826C2.23428 16.3074 0.686639 15.5692 0.161788 14.0696C-0.357296 12.5873 0.405949 11.0474 1.97474 10.4725C2.35924 10.3322 2.50535 10.063 2.63609 9.71505C3.12441 8.40389 4.47787 7.6714 5.84479 7.95402C7.18287 8.23086 8.14606 9.44013 8.08454 10.8032C8.07108 11.1166 7.99418 11.4396 7.88652 11.7356C7.74618 12.1221 7.82308 12.4162 8.11146 12.6931C8.50173 13.066 8.88239 13.4486 9.25536 13.837C9.60526 14.2022 9.63026 14.656 9.33611 14.9636C9.02658 15.2866 8.55941 15.2635 8.1749 14.8905C7.76348 14.4925 7.3559 14.0869 6.95794 13.6755C6.31581 13.0103 6.13125 12.2393 6.41771 11.3473C6.5023 11.082 6.57343 10.784 6.54652 10.5129C6.485 9.92653 5.97937 9.47474 5.393 9.40745C4.84892 9.34401 4.24332 9.66891 4.07029 10.2207C3.78768 11.1185 3.2263 11.6626 2.3304 11.9548C1.66521 12.1701 1.37491 12.9295 1.60753 13.5793C1.844 14.2368 2.53035 14.6348 3.18978 14.383C4.43173 13.9119 5.3507 14.3022 6.20046 15.2385C7.60583 16.7861 9.07657 18.2742 10.4992 19.8064C10.7722 20.1006 10.9837 20.1429 11.3048 19.9237C11.6624 19.6776 12.0411 19.4642 12.5102 19.1758C11.8854 18.5702 11.3182 18.0281 10.7607 17.4782C10.3128 17.0341 10.2628 16.5823 10.605 16.2459C10.9414 15.9152 11.3971 15.9767 11.8412 16.4189C12.4006 16.9784 12.9543 17.5417 13.5157 18.1108C14.4654 17.5686 15.3056 17.7282 16.1303 18.3434C17.2762 19.1989 18.6008 19.543 20.0177 19.5719C21.9306 19.6123 23.7455 20.0775 25.5104 20.7946C25.7026 20.8734 25.9814 20.8869 26.1679 20.8061C28.0308 19.9948 29.9803 19.5757 32.0047 19.5161C33.585 19.4681 34.9692 18.9605 36.1477 17.8993C36.8399 17.2764 37.6108 17.1206 38.4875 17.4975C38.6086 17.5494 38.8489 17.4975 38.945 17.4013C40.5407 15.8268 42.123 14.2349 43.711 12.6527C43.9936 12.372 44.059 12.0817 43.9282 11.6933C43.3861 10.0919 44.1224 8.52116 45.6354 7.99823C47.1158 7.48492 48.6327 8.2597 49.2498 9.81887C49.3305 10.0207 49.4901 10.286 49.667 10.3399C50.8282 10.6975 51.4799 11.5011 51.8125 12.6219C51.8125 12.9584 51.8125 13.2967 51.8125 13.6332C51.7914 13.6582 51.7549 13.6812 51.7491 13.7082C51.4242 15.3 49.6266 16.4285 47.8906 15.7114C47.5541 15.5711 47.2754 15.6787 47.0254 15.9325C46.291 16.6765 45.5489 17.4129 44.8107 18.1511C43.7379 19.222 42.667 20.2928 41.5943 21.3656C42.121 22.3153 41.9692 23.1555 41.352 23.9802C41.0348 24.4032 40.8156 24.8973 40.5234 25.4106C43.5802 25.8951 46.1526 27.1101 48.0886 29.4518C50.0765 31.8549 50.6975 34.6003 49.9554 37.6975C50.2668 37.6975 50.5167 37.7167 50.7648 37.6937C51.23 37.6514 51.5876 37.7994 51.8145 38.2224C51.8087 38.503 51.8087 38.7741 51.8087 39.0433ZM23.2245 37.6783C23.2918 37.686 23.3879 37.709 23.4859 37.709C31.6471 37.711 39.8063 37.709 47.9675 37.7167C48.2578 37.7167 48.3885 37.6264 48.4616 37.3514C48.7999 36.073 48.8787 34.7868 48.5096 33.5064C47.5906 30.3054 45.3547 28.3982 42.2941 27.41C38.7393 26.2623 35.3422 26.889 32.0797 28.5501C31.8105 28.6866 31.5567 28.8654 31.278 28.9769C30.8896 29.1326 30.5282 29.05 30.3225 28.6635C30.1225 28.2925 30.1975 27.9426 30.5436 27.6792C30.6493 27.5984 30.7723 27.5369 30.8896 27.4716C33.287 26.1412 35.8459 25.3895 38.5951 25.3029C38.7624 25.2972 38.9931 25.1626 39.0777 25.0184C39.4891 24.3263 39.8467 23.6034 40.2504 22.9055C40.4273 22.5979 40.4504 22.3576 40.1716 22.1019C39.3295 21.331 38.672 20.4274 38.1799 19.3912C37.8396 18.6721 37.5993 18.6394 37.0013 19.1681C35.5998 20.4063 33.9484 20.9811 32.1027 21.0349C30.7108 21.0753 29.3516 21.2964 28.0366 21.7501C24.8221 22.8594 22.1344 24.6743 20.2888 27.6004C20.185 27.7657 20.0965 27.9426 19.9927 28.131C20.2061 28.2406 20.3695 28.3252 20.5329 28.4078C21.8999 29.0865 23.161 29.9189 24.2665 30.9783C25.3989 32.0626 25.4027 32.0703 26.5601 30.961C26.9734 30.5649 27.3541 30.1323 27.7751 29.744C28.1039 29.4402 28.5345 29.4614 28.8152 29.7671C29.1094 30.0843 29.1401 30.4496 28.8537 30.7706C27.6098 32.1722 26.2505 33.4141 24.3665 33.9063C23.1783 34.2177 23.2783 34.0755 23.3418 35.302C23.386 36.0826 23.2706 36.8708 23.2245 37.6783ZM46.9601 42.3693C46.7159 42.3693 46.514 42.3693 46.3141 42.3693C39.1642 42.3693 32.0143 42.3693 24.8644 42.3673C24.6472 42.3673 24.4203 42.3731 24.2146 42.3154C23.8243 42.2058 23.634 41.9175 23.6801 41.5118C23.7243 41.1311 23.957 40.9062 24.3395 40.862C24.5222 40.8408 24.7106 40.8524 24.8952 40.8524C32.3988 40.8524 39.9024 40.8524 47.408 40.8524C47.6099 40.8524 47.8137 40.8601 48.0155 40.8447C49.0287 40.7697 49.8881 40.1103 50.0707 39.2605C33.9599 39.2605 17.8529 39.2605 1.74788 39.2605C1.74211 39.3259 1.72865 39.3605 1.73634 39.3893C1.75557 39.4528 1.78056 39.5162 1.81324 39.5739C2.32079 40.466 3.10711 40.8524 4.11644 40.8524C9.63026 40.8505 15.1441 40.8505 20.6598 40.8524C20.8444 40.8524 21.0732 40.7909 21.2058 40.8755C21.4519 41.0331 21.7364 41.2427 21.8306 41.4945C21.9595 41.8386 21.7518 42.1635 21.3846 42.2866C21.1674 42.3596 20.9213 42.3654 20.6887 42.3654C15.6132 42.3693 10.5377 42.3693 5.46221 42.3693C5.26803 42.3693 5.07386 42.3693 4.88545 42.3693C4.87776 42.4654 4.8643 42.5019 4.87391 42.5308C4.90275 42.6096 4.93351 42.6903 4.97581 42.7615C5.51796 43.6593 6.33119 43.9996 7.35782 43.9996C19.7178 43.9919 32.0797 43.9938 44.4396 43.9938C44.5915 43.9938 44.7434 43.9976 44.8953 43.9861C45.8661 43.9111 46.6601 43.3094 46.9601 42.3693ZM23.6724 32.5182C22.2075 31.0878 20.6137 30.0401 18.82 29.3076C15.6036 27.9945 12.3314 27.6465 9.03043 28.9481C6.30043 30.0266 4.26639 31.8396 3.40125 34.7483C3.11672 35.7058 3.03982 36.6863 3.21285 37.6667C5.00464 37.6667 6.74454 37.6667 8.56518 37.6667C8.45944 37.4264 8.39215 37.2419 8.30179 37.0727C7.56161 35.6904 8.0211 34.0139 9.35149 33.2488C10.7146 32.4644 12.4006 32.9085 13.2042 34.2946C13.4599 34.7387 13.7695 34.931 14.2712 34.8368C14.4846 34.7964 14.7077 34.806 14.9268 34.7906C17.0608 34.6464 19.1968 34.508 21.3308 34.3504C21.5 34.3369 21.773 34.2273 21.8076 34.1081C22.0671 33.193 22.6939 32.7181 23.6724 32.5182ZM24.0031 21.8693C22.7246 21.4175 21.4481 21.131 20.1234 21.1061C18.4874 21.0753 16.957 20.7004 15.5651 19.816C14.6212 19.2143 14.6558 19.2623 13.7925 19.9679C13.0677 20.5581 12.2545 21.0407 11.4605 21.5425C10.9433 21.8693 10.7992 22.1385 11.1433 22.4884C12.1776 23.5438 12.6506 24.8646 13.0024 26.245C13.0831 26.5641 13.2331 26.6256 13.5234 26.6333C15.0999 26.6679 16.6417 26.9313 18.1355 27.4389C18.4951 27.56 18.6315 27.4658 18.7969 27.164C19.5755 25.7451 20.6021 24.5205 21.8499 23.4919C22.5228 22.9344 23.2437 22.4384 24.0031 21.8693ZM40.5311 20.3793C40.7349 20.1352 40.8445 19.9852 40.9752 19.8545C42.6171 18.2088 44.2666 16.5708 45.9007 14.9213C46.6255 14.1907 47.4503 13.9504 48.4289 14.308C48.5077 14.3368 48.5904 14.358 48.6711 14.3772C49.3382 14.5348 49.9765 14.1926 50.2053 13.5524C50.4322 12.9218 50.1668 12.1663 49.5305 11.9548C48.6038 11.6472 48.0251 11.0877 47.7233 10.1534C47.5157 9.51703 46.7582 9.23634 46.1314 9.44975C45.4797 9.67276 45.0587 10.3764 45.3067 11.0205C45.7835 12.2566 45.3913 13.1756 44.4858 14.0465C42.8478 15.6192 41.2617 17.2495 39.6102 18.8971C39.8986 19.3623 40.1793 19.8122 40.5311 20.3793ZM21.9075 35.8711C21.6826 35.8711 21.5673 35.8653 21.4538 35.873C19.1852 36.023 16.9128 36.1326 14.65 36.3421C13.3869 36.4594 12.4583 36.1326 11.8296 34.9752C11.4932 34.3542 10.6953 34.2196 10.1013 34.5734C9.51106 34.9252 9.31112 35.65 9.60142 36.2921C9.79944 36.7285 9.96286 37.1803 10.1763 37.711C10.903 37.711 11.7239 37.711 12.5448 37.711C15.3921 37.711 18.2394 37.7148 21.0866 37.7033C21.252 37.7033 21.5346 37.6129 21.5653 37.5072C21.7134 36.9823 21.796 36.4421 21.9075 35.8711Z" fill="#0FA251"/>
<path d="M20.8659 4.16475C20.6852 4.70113 20.5583 5.26251 20.3141 5.76814C19.8912 6.64097 19.8815 7.46766 20.3218 8.33087C20.9562 9.56898 20.9312 10.8129 20.3314 12.0702C20.1469 12.4566 20.0565 12.895 19.9757 13.3198C19.8758 13.8408 19.6124 14.1119 19.151 14.0754C18.7069 14.0408 18.4012 13.7024 18.4742 13.1853C18.5492 12.6431 18.6492 12.074 18.8857 11.5896C19.3452 10.6514 19.3701 9.77085 18.8953 8.83842C18.2897 7.65222 18.3147 6.45064 18.8895 5.24136C19.0664 4.86839 19.1779 4.45313 19.2471 4.04555C19.3452 3.4611 19.6201 3.12081 20.07 3.14773C20.5275 3.17656 20.7871 3.53992 20.8659 4.16475Z" fill="#0FA251"/>
<path d="M30.9526 13.081C31.118 12.5754 31.2218 12.039 31.4602 11.5699C31.9331 10.6356 31.9293 9.75121 31.4544 8.81879C30.8584 7.64989 30.8892 6.46368 31.441 5.26787C31.6332 4.84876 31.7447 4.38158 31.837 3.92594C31.9389 3.42224 32.2292 3.11271 32.6579 3.15116C33.0886 3.19154 33.4173 3.55105 33.3404 4.04706C33.252 4.61998 33.127 5.21019 32.8886 5.73505C32.4811 6.62902 32.4484 7.47109 32.8982 8.34969C33.525 9.5705 33.5058 10.799 32.9098 12.039C32.7329 12.4101 32.6349 12.8292 32.5656 13.2368C32.4676 13.802 32.2157 14.0961 31.7505 14.075C31.266 14.0558 31.0257 13.7251 30.9526 13.081Z" fill="#0FA251"/>
<path d="M27.1374 1.09046C26.9586 1.60955 26.824 2.1517 26.5875 2.64387C26.178 3.4994 26.1646 4.31647 26.5952 5.16046C27.2373 6.41588 27.2181 7.67321 26.6029 8.94401C26.4241 9.31313 26.3434 9.73801 26.2665 10.1456C26.1627 10.6954 25.882 10.9761 25.409 10.9242C24.9726 10.8762 24.69 10.5474 24.7669 10.011C24.8476 9.45348 24.9668 8.87864 25.2014 8.37301C25.6167 7.48096 25.657 6.64081 25.2052 5.76029C24.5689 4.52026 24.5958 3.27638 25.1995 2.02289C25.3629 1.68068 25.4667 1.2981 25.5301 0.923204C25.6359 0.290691 25.9127 -0.0419069 26.3761 0.00423389C26.8528 0.0522972 27.0912 0.427191 27.1374 1.09046Z" fill="#0FA251"/>
</svg>
