<svg width="50" height="50" viewBox="0 0 50 50" fill="none" xmlns="http://www.w3.org/2000/svg">
<path d="M7.24707 0.299805C9.61079 0.299809 12.0505 0.797556 14.499 1.7832C17.6869 3.06653 20.7868 5.15334 23.7188 7.99512L23.7891 8.06348L23.8867 8.07715C24.7644 8.1981 26.6264 8.50182 28.6104 9.11914C30.6029 9.73917 32.6787 10.6631 34.0166 12.001C35.0943 13.0788 35.1245 14.1274 34.9775 14.8105C34.8084 15.5969 34.2948 16.3001 33.6279 16.9053C32.9632 17.5085 32.1691 17.9941 31.4844 18.3496L31.2373 18.4775L31.3467 18.7334C32.2923 20.9495 32.8152 22.9372 33.2715 24.6738C33.5394 25.6938 33.7844 26.6267 34.0791 27.4189C34.3738 28.2111 34.7285 28.8916 35.2324 29.3955C35.9334 30.0965 36.7871 30.4599 37.7285 30.6602C38.6626 30.8588 39.7046 30.9009 40.7871 30.9453C43.6129 31.0611 46.6958 31.1958 49.3594 33.8594C49.6306 34.1307 49.751 34.5185 49.6807 34.8955H49.6797C49.6094 35.273 49.3579 35.5925 49.0068 35.748L39.9287 39.7686L39.8232 39.8154L39.7764 39.9219L35.7549 49C35.5994 49.351 35.2806 49.6025 34.9033 49.6729H34.9023C34.5764 49.7342 34.2353 49.6503 33.9736 49.4463L33.8662 49.3516C31.2026 46.6879 31.068 43.6052 30.9521 40.7793C30.9078 39.6967 30.8657 38.6548 30.667 37.7207C30.4667 36.7793 30.1034 35.9256 29.4023 35.2246C28.8984 34.7208 28.2179 34.366 27.4258 34.0713C26.6336 33.7766 25.7014 33.5316 24.6816 33.2637C22.9447 32.8073 20.9558 32.2849 18.7393 31.3389L18.4834 31.2295L18.3555 31.4766C17.9998 32.1617 17.5136 32.9559 16.9102 33.6211C16.3048 34.2884 15.602 34.8033 14.8154 34.9727C14.6399 35.0104 14.4415 35.0361 14.2275 35.0361C13.6045 35.0361 12.816 34.8209 12.0059 34.0107C10.667 32.6718 9.74306 30.5945 9.12305 28.6006C8.50557 26.6148 8.20145 24.7519 8.08105 23.877L8.06738 23.7793L7.99902 23.709C2.88603 18.4302 1.13768 13.5169 0.573242 10.3066C-0.0755186 6.61676 0.632689 4.20586 0.654297 4.13379C0.743432 3.83681 0.947207 3.58764 1.2207 3.44141C1.49451 3.29522 1.81497 3.26431 2.11133 3.35547L2.11621 3.35645C2.24557 3.39386 2.57578 3.43738 3.13379 3.45996L3.45898 3.47266L3.44629 3.14746C3.43702 2.92072 3.42371 2.71369 3.40723 2.54297C3.39141 2.37924 3.37055 2.22813 3.34082 2.12598L3.33887 2.12012C3.2463 1.82352 3.27698 1.50227 3.42285 1.22754C3.55039 0.987614 3.75735 0.801124 4.00684 0.698242L4.11621 0.65918C4.22232 0.6274 5.35944 0.299805 7.24707 0.299805ZM34.3057 31.9697L31.9766 34.2979L31.8057 34.4697L31.9375 34.6729C33.1001 36.4708 33.1932 38.5583 33.2803 40.6846C33.3508 42.4046 33.4171 44.1304 34.1221 45.6982L34.3984 46.3115L34.6709 45.6963L37.876 38.4619C37.9932 38.1973 38.2042 37.9854 38.4688 37.8682L45.7031 34.6631L46.3184 34.3906L45.7051 34.1152C44.1372 33.4104 42.4115 33.3431 40.6914 33.2725C38.5652 33.1853 36.4786 33.0921 34.6807 31.9297L34.4766 31.7979L34.3057 31.9697ZM7.24707 2.62891C6.78853 2.62891 6.38522 2.65221 6.04492 2.68457L5.75977 2.71191L5.77344 2.99707C5.80417 3.65208 5.79335 4.29887 5.78223 4.66699C5.76359 5.28292 5.26826 5.77764 4.65234 5.7959H4.64746C4.64483 5.79598 4.64041 5.79675 4.63574 5.79688C4.62644 5.79713 4.61332 5.79745 4.59668 5.79785C4.56286 5.79867 4.51436 5.79973 4.4541 5.80078C4.33355 5.80288 4.165 5.80469 3.96875 5.80469C3.5925 5.80468 3.27021 5.79793 2.99414 5.78613L2.70996 5.77344L2.68262 6.05762C2.59671 6.98003 2.57965 8.37197 2.90137 10.0889C3.45531 13.0444 5.15362 17.5764 10.0693 22.4922C16.203 28.6257 21.46 30.0087 25.2734 31.0107C27.0942 31.4893 28.6675 31.9068 29.9453 32.7061L30.1475 32.833L32.8398 30.1406L32.7139 29.9375C31.9146 28.6598 31.4969 27.0871 31.0186 25.2666C30.0165 21.453 28.6338 16.1953 22.5 10.0615C16.0495 3.61102 10.1951 2.62893 7.24707 2.62891ZM11.1855 27.3691C11.7124 29.2259 12.5083 31.2193 13.6533 32.3643C13.7256 32.4364 13.8169 32.5174 13.9092 32.5801C13.955 32.6111 14.01 32.6434 14.0684 32.667C14.1195 32.6876 14.2138 32.7177 14.3213 32.6963L14.3252 32.6953C14.5112 32.6553 14.687 32.541 14.8408 32.4111C14.9998 32.2769 15.1623 32.1032 15.3213 31.9062C15.64 31.5115 15.9661 30.9999 16.25 30.4688L16.3887 30.208L16.1299 30.0654C14.7149 29.2837 13.2224 28.3046 11.6611 27.0537L10.9297 26.4668L11.1855 27.3691ZM27.0635 11.6582C28.3132 13.2185 29.2921 14.7097 30.0732 16.124L30.2158 16.3828L30.4766 16.2441C31.0111 15.9598 31.5216 15.6354 31.915 15.3174C32.1115 15.1585 32.2853 14.9964 32.4189 14.8369C32.5484 14.6825 32.6603 14.5066 32.7002 14.3203C32.7236 14.2108 32.6934 14.1146 32.6729 14.0635C32.6492 14.0048 32.6161 13.9501 32.585 13.9043C32.5221 13.812 32.4413 13.7206 32.3691 13.6484C31.2253 12.5047 29.2349 11.7085 27.3799 11.1816L26.4775 10.9258L27.0635 11.6582Z" fill="#0FA251" stroke="white" stroke-width="0.6"/>
<path d="M11.7393 7.1333C12.3825 7.13333 12.9043 7.65507 12.9043 8.29834C12.9043 8.94159 12.3825 9.46335 11.7393 9.46338C11.096 9.46338 10.5743 8.94161 10.5742 8.29834C10.5742 7.65505 11.096 7.1333 11.7393 7.1333Z" fill="#0FA251" stroke="white" stroke-width="0.6"/>
<path d="M17.1738 12.189C17.54 11.6602 18.2661 11.5279 18.7949 11.894C19.2907 12.2373 19.4374 12.8968 19.1523 13.4136L19.0889 13.5151C18.613 14.2025 18.0952 14.8657 17.541 15.4976L17.3555 15.7085L20.3164 18.6694C20.7711 19.1245 20.7712 19.8622 20.3164 20.3169C20.0889 20.5443 19.7906 20.6577 19.4922 20.6577C19.2312 20.6576 18.971 20.5708 18.7578 20.397L18.6689 20.3169L15.9062 17.5532L15.707 17.355L15.4961 17.5396C14.7079 18.2306 13.872 18.8667 12.9971 19.436C12.8007 19.5639 12.5806 19.6254 12.3633 19.6255C11.9814 19.6255 11.6078 19.4381 11.3848 19.0952C11.0342 18.556 11.1875 17.8346 11.7266 17.4839C12.8692 16.7403 13.9385 15.8728 14.9053 14.9058C15.7408 14.0706 16.504 13.1566 17.1738 12.189Z" fill="#0FA251" stroke="white" stroke-width="0.6"/>
</svg>
