<svg width="32" height="50" viewBox="0 0 32 50" fill="none" xmlns="http://www.w3.org/2000/svg">
<path d="M21.6377 0.641602C22.0926 0.186661 22.8302 0.186717 23.2852 0.641602C23.7399 1.09649 23.7398 1.83333 23.2852 2.28809L20.6963 4.87695V9.28418H23.9258C24.3669 9.28418 24.7704 9.53307 24.9678 9.92773L27.4932 14.9775L27.5752 15.1436H29.7852C30.4284 15.1436 30.9503 15.6651 30.9502 16.3086V22.168C30.95 22.8111 30.4283 23.332 29.7852 23.332H28.875L28.8447 23.5996L26.0605 48.6641C25.9949 49.2538 25.4958 49.7002 24.9023 49.7002H6.34766C5.7543 49.7001 5.25607 49.2537 5.19043 48.6641L2.40527 23.5996L2.375 23.332H1.46484C0.821665 23.332 0.3 22.8111 0.299805 22.168V16.3086C0.299805 15.6653 0.821545 15.1436 1.46484 15.1436H3.6748L3.75781 14.9775L6.28223 9.92773C6.47951 9.53317 6.88308 9.28429 7.32422 9.28418H18.3662V4.39453C18.3663 4.08565 18.4896 3.7897 18.708 3.57129L21.6377 0.641602ZM7.03516 44.1729L7.36133 47.1035L7.39062 47.3701H23.8604L23.8896 47.1035L24.2148 44.1729L24.252 43.8398H6.99805L7.03516 44.1729ZM4.75684 23.665L6.70996 41.2432L6.73926 41.5107H24.5107L24.541 41.2432L26.4941 23.665L26.5312 23.332H4.71973L4.75684 23.665ZM2.62988 21.0029H28.6211V17.4727H2.62988V21.0029ZM6.49707 14.709L6.2793 15.1436H24.9707L24.7539 14.709L23.2061 11.6133H8.04492L6.49707 14.709Z" fill="#0FA251" stroke="white" stroke-width="0.6"/>
<path d="M15.625 28.3267C17.8825 28.3267 19.7197 30.1639 19.7197 32.4214C19.7197 34.6788 17.8825 36.5161 15.625 36.5161C13.3675 36.5161 11.5303 34.6788 11.5303 32.4214C11.5303 30.1639 13.3675 28.3267 15.625 28.3267ZM15.625 30.6567C14.6516 30.6567 13.8604 31.448 13.8604 32.4214C13.8604 33.3948 14.6516 34.186 15.625 34.186C16.5984 34.186 17.3896 33.3948 17.3896 32.4214C17.3896 31.448 16.5984 30.6567 15.625 30.6567Z" fill="#0FA251" stroke="white" stroke-width="0.6"/>
</svg>
