<svg width="21" height="18" viewBox="0 0 21 18" fill="none" xmlns="http://www.w3.org/2000/svg">
<path d="M0 8.73442C0.105518 8.4434 0.216141 8.15862 0.451002 7.9385C0.722171 7.68435 1.03929 7.5448 1.40747 7.51814C1.51923 7.51019 1.63155 7.51076 1.74388 7.51076C6.30836 7.51019 10.8728 7.51076 15.4373 7.51076C15.5162 7.51076 15.595 7.51076 15.7164 7.51076C15.6569 7.46878 15.6319 7.44268 15.6013 7.4302C15.1662 7.25264 14.8059 6.97069 14.4775 6.63996C13.2175 5.37204 11.9575 4.10413 10.6919 2.84133C10.2386 2.38919 10.0435 1.86614 10.2363 1.24268C10.5177 0.336135 11.6603 -0.0133212 12.4159 0.565891C12.5101 0.637938 12.5991 0.717359 12.6831 0.800752C15.0391 3.15504 17.3951 5.51047 19.7494 7.86646C20.3042 8.42127 20.4176 9.09296 20.0551 9.71698C19.9769 9.852 19.8696 9.97397 19.7584 10.0852C17.3956 12.4519 15.0311 14.8164 12.6655 17.1804C12.0108 17.8345 11.0759 17.8157 10.482 17.1429C10.0565 16.6607 10.0605 15.8234 10.4939 15.2969C10.5693 15.2056 10.6522 15.1199 10.7361 15.036C11.8038 13.9672 12.872 12.8995 13.9408 11.8319C14.2069 11.5664 14.4582 11.2827 14.7469 11.0439C15.0272 10.8113 15.346 10.6252 15.6603 10.4108C15.5911 10.4108 15.5168 10.4108 15.4424 10.4108C10.832 10.4108 6.221 10.4091 1.61056 10.4136C1.09262 10.4142 0.635374 10.2837 0.324495 9.85484C0.178699 9.65401 0.106085 9.39986 0.000567299 9.17011C0 9.02431 0 8.87908 0 8.73442Z" fill="#1E1D1E"/>
</svg>
