<svg width="30" height="18" viewBox="0 0 30 18" fill="none" xmlns="http://www.w3.org/2000/svg">
<path d="M28.8149 15.5657H27.9298C27.5387 9.58394 23.0926 4.7014 17.4237 3.6475C17.576 3.32227 17.6584 2.95587 17.6584 2.57301C17.6584 1.15271 16.5015 0 15.0854 0C13.6651 0 12.5082 1.15682 12.5082 2.57301C12.5082 2.95587 12.5947 3.31815 12.7429 3.6475C7.07403 4.69317 2.52084 9.55924 2.12151 15.5657H1.23639C0.75884 15.5657 0.375977 15.9485 0.375977 16.422C0.375977 16.8954 0.75884 17.2783 1.23639 17.2783H28.819C29.2925 17.2783 29.6753 16.8954 29.6753 16.422C29.6753 15.9485 29.2884 15.5657 28.8149 15.5657ZM15.0812 1.71671C15.5547 1.71671 15.9375 2.10369 15.9375 2.57301C15.9375 3.04644 15.5506 3.43342 15.0812 3.43342C14.6078 3.43342 14.2249 3.04644 14.2249 2.57301C14.2249 2.10369 14.6078 1.71671 15.0812 1.71671ZM3.84233 15.5657C4.2993 9.83919 9.26006 5.13778 15.0812 5.13778C20.9477 5.13778 25.7726 9.74862 26.209 15.5657H3.84233Z" fill="#0FA251"/>
</svg>
